HIERARCHY
ROOT root
{
	OFFSET 0.000000 0.000000 0.000000
	CHANNELS 6 Xposition Yposition Zposition Zrotation Yrotation Xrotation
	JOINT lhip
	{
		OFFSET 0.058581 -0.082280 -0.017664
		CHANNELS 3 Zrotation Yrotation Xrotation
		JOINT lknee
		{
			OFFSET 0.043451 -0.386469 0.008037
			CHANNELS 3 Zrotation Yrotation Xrotation
			JOINT lankle
			{
				OFFSET -0.014790 -0.426874 -0.037428
				CHANNELS 3 Zrotation Yrotation Xrotation
				JOINT ltoe
				{
					OFFSET 0.041054 -0.060286 0.122042
					CHANNELS 3 Zrotation Yrotation Xrotation
					End Site
					{
						OFFSET 0.000000 0.000000 0.000000
					}
				}
			}
		}
	}
	JOINT rhip
	{
		OFFSET -0.060310 -0.090513 -0.013543
		CHANNELS 3 Zrotation Yrotation Xrotation
		JOINT rknee
		{
			OFFSET -0.043257 -0.383688 -0.004843
			CHANNELS 3 Zrotation Yrotation Xrotation
			JOINT rankle
			{
				OFFSET 0.019056 -0.420046 -0.034562
				CHANNELS 3 Zrotation Yrotation Xrotation
				JOINT rtoe
				{
					OFFSET -0.034840 -0.062106 0.130323
					CHANNELS 3 Zrotation Yrotation Xrotation
					End Site
					{
						OFFSET 0.000000 0.000000 0.000000
					}
				}
			}
		}
	}
	JOINT lowerback
	{
		OFFSET 0.004439 0.124404 -0.038385
		CHANNELS 3 Zrotation Yrotation Xrotation
		JOINT upperback
		{
			OFFSET 0.004488 0.137956 0.026820
			CHANNELS 3 Zrotation Yrotation Xrotation
			JOINT chest
			{
				OFFSET -0.002265 0.056032 0.002855
				CHANNELS 3 Zrotation Yrotation Xrotation
				JOINT lowerneck
				{
					OFFSET -0.013390 0.211636 -0.033468
					CHANNELS 3 Zrotation Yrotation Xrotation
					JOINT upperneck
					{
						OFFSET 0.010113 0.088937 0.050410
						CHANNELS 3 Zrotation Yrotation Xrotation
						End Site
						{
							OFFSET 0.000000 0.000000 0.000000
						}
					}
				}
				JOINT lclavicle
				{
					OFFSET 0.071702 0.114000 -0.018898
					CHANNELS 3 Zrotation Yrotation Xrotation
					JOINT lshoulder
					{
						OFFSET 0.122921 0.045205 -0.019046
						CHANNELS 3 Zrotation Yrotation Xrotation
						JOINT lelbow
						{
							OFFSET 0.255332 -0.015649 -0.022946
							CHANNELS 3 Zrotation Yrotation Xrotation
							JOINT lwrist
							{
								OFFSET 0.265709 0.012698 -0.007375
								CHANNELS 3 Zrotation Yrotation Xrotation
								End Site
								{
									OFFSET 0.000000 0.000000 0.000000
								}
							}
						}
					}
				}
				JOINT rclavicle
				{
					OFFSET -0.082954 0.112472 -0.023707
					CHANNELS 3 Zrotation Yrotation Xrotation
					JOINT rshoulder
					{
						OFFSET -0.113228 0.046853 -0.008472
						CHANNELS 3 Zrotation Yrotation Xrotation
						JOINT relbow
						{
							OFFSET -0.260127 -0.014369 -0.031269
							CHANNELS 3 Zrotation Yrotation Xrotation
							JOINT rwrist
							{
								OFFSET -0.269108 0.006794 -0.006027
								CHANNELS 3 Zrotation Yrotation Xrotation
								End Site
								{
									OFFSET 0.000000 0.000000 0.000000
								}
							}
						}
					}
				}
			}
		}
	}
}
MOTION
Frames: 17
Frame Time: 0.033333
-1.021968 0.337341 0.988782 89.596604 2.250705 85.869869 -3.156085 -1.023827 -4.584108 -2.068122 -11.472982 15.506968 6.327441 23.716893 -15.708511 0.000000 -0.000000 0.000000 -4.041836 -2.758643 -11.417763 2.597244 0.487790 50.103124 7.199172 -18.071484 -11.987630 0.000000 -0.000000 0.000000 1.713514 0.462854 16.018087 2.519534 -1.399458 -5.507893 1.626941 -0.738304 6.342076 0.331162 -2.742302 6.170288 -1.396252 -2.337507 2.282421 -5.655578 6.652833 -8.256006 -17.608447 -1.546283 -10.131476 14.867171 -24.636887 -8.221546 3.892357 2.353437 13.162743 5.208444 -7.451170 -12.065856 17.945619 -1.555590 -4.741420 -18.399073 24.545624 -15.654739 -20.695452 1.117808 15.751346 
-1.013289 0.337747 0.988068 89.904022 2.495942 85.722661 -3.159933 -0.817955 -3.301326 -1.687481 -12.488169 14.643254 6.258350 23.909590 -17.052739 0.000000 -0.000000 0.000000 -3.462161 -2.376459 -13.211474 2.226206 -0.069547 48.622742 7.447621 -18.277959 -14.516968 0.000000 -0.000000 0.000000 1.412631 0.038698 16.593067 2.311468 -1.307217 -6.032864 1.597189 -0.771376 6.491989 0.795597 -2.248194 6.333507 -1.188070 -2.692840 2.597275 -5.552895 6.737320 -8.464302 -17.506499 -2.036100 -10.067916 14.997664 -24.375431 -8.417181 3.944762 2.306774 12.799527 5.222817 -7.503914 -12.071331 18.356974 -1.281231 -4.463360 -18.646020 24.818250 -15.336884 -20.594180 0.984134 15.475306 
-1.004891 0.337568 0.985998 90.307782 2.492676 85.583837 -3.077373 -0.503739 -2.129819 -1.751335 -13.109356 14.011263 6.070294 23.905535 -19.095405 0.000000 -0.000000 0.000000 -3.077284 -2.132781 -15.132022 2.021320 -0.372530 47.410988 7.586778 -18.614013 -16.360256 0.000000 -0.000000 0.000000 0.777592 -0.321728 17.213405 2.163438 -1.400023 -6.510202 1.562672 -0.816216 6.757402 1.315383 -1.648071 6.146374 -0.893419 -3.118631 2.884909 -5.458296 6.902193 -8.709435 -17.149354 -2.489927 -10.130415 15.057823 -24.350393 -8.603521 4.120063 2.242493 12.433104 5.441492 -7.638908 -12.214770 18.930332 -0.854735 -4.087337 -19.091184 25.186649 -15.229205 -20.471931 0.779592 15.162250 
-0.996173 0.337106 0.983604 90.861422 2.317501 85.247813 -2.944540 -0.049605 -0.920419 -2.180820 -13.965458 13.643530 5.566367 23.861109 -21.271251 0.000000 -0.000000 0.000000 -2.968672 -1.899436 -16.834888 2.197313 -0.602383 46.128148 7.774390 -18.554412 -17.536705 0.000000 -0.000000 0.000000 0.060909 -0.630526 18.016954 1.964733 -1.536049 -6.715245 1.506926 -0.958762 7.049448 1.840459 -0.880285 5.525448 -0.630888 -3.679184 3.106738 -5.447504 6.937632 -8.992132 -16.837500 -2.842875 -10.105295 15.170181 -24.588222 -8.735686 4.386221 2.002886 12.417141 5.856265 -7.856936 -12.460294 19.491231 -0.608775 -3.729120 -19.579922 25.788108 -15.090754 -20.350128 0.623492 15.018761 
-0.986593 0.336639 0.981897 91.459292 2.202487 84.854558 -2.791816 0.373271 0.186741 -2.545467 -14.865894 13.672531 4.910222 23.741933 -22.941480 0.000000 -0.000000 0.000000 -2.882152 -1.683822 -18.313884 2.465133 -0.765476 44.434358 8.233460 -17.770227 -18.046708 0.000000 -0.000000 0.000000 -0.334166 -1.003764 18.913632 1.670511 -1.675183 -6.913071 1.380746 -1.122069 7.362625 2.160166 -0.115852 4.894123 -0.445431 -3.921984 2.967136 -5.539841 6.974818 -9.159984 -16.861370 -3.139899 -9.995349 15.282297 -24.968900 -8.739097 4.498982 1.589331 12.301497 6.168764 -8.155696 -12.710739 20.028138 -0.602541 -3.403449 -19.788962 26.582322 -14.595378 -20.220581 0.669100 14.925745 
-0.975915 0.335942 0.980869 92.013440 2.256382 84.589368 -2.466094 0.599792 1.177488 -2.658075 -15.183879 13.692603 4.345993 23.082280 -23.436906 0.000000 -0.000000 0.000000 -2.726938 -1.217887 -19.656034 2.663642 -0.964345 42.122161 8.664924 -17.073501 -17.907753 0.000000 -0.000000 0.000000 -0.469124 -1.515816 19.643826 1.408451 -1.687037 -7.016188 1.250778 -1.250236 7.484291 2.187358 0.438941 4.509704 -0.323615 -3.840587 2.778938 -5.722045 7.076753 -9.184517 -17.238987 -3.448286 -9.655742 15.372437 -25.236400 -8.634290 4.104281 1.279581 12.209751 6.344913 -8.392875 -12.781352 20.244828 -0.765444 -3.076808 -19.757698 26.979985 -14.098831 -19.832784 0.850848 14.715834 
-0.963836 0.334400 0.979869 92.616489 2.331542 84.436668 -1.917262 0.871582 2.167350 -2.688243 -15.155913 13.405970 4.209619 21.995194 -22.281977 0.000000 -0.000000 0.000000 -2.621661 -0.616225 -20.850031 2.721345 -1.035656 39.322256 8.831940 -16.868927 -17.033655 0.000000 -0.000000 0.000000 -0.737229 -2.002028 20.066132 1.227281 -1.611009 -6.864452 1.257694 -1.455033 7.477384 2.113346 0.698852 4.278497 -0.131815 -3.411209 2.412707 -6.022346 7.162132 -9.075012 -17.721781 -3.878237 -9.355672 15.468299 -25.133192 -8.489252 3.500471 1.159190 12.021579 6.408543 -8.636903 -12.680684 20.234963 -0.860198 -2.813487 -19.697298 26.872419 -14.064082 -19.372237 0.662834 14.123655 
-0.950667 0.331700 0.978957 93.414066 2.342726 84.421371 -1.094305 1.450977 3.132322 -3.041536 -15.237813 13.057171 3.677032 20.719689 -21.979797 0.000000 -0.000000 0.000000 -2.571485 -0.130262 -21.954992 2.494457 -0.839860 36.182458 9.195315 -16.798766 -15.201866 0.000000 -0.000000 0.000000 -1.167304 -2.544352 20.516156 0.999574 -1.701302 -6.920230 1.264111 -1.665676 7.465213 2.140661 0.894564 4.109315 0.352182 -2.907298 2.041029 -6.339983 7.283764 -8.964833 -18.042208 -4.191997 -9.324401 15.451789 -24.814599 -8.458856 2.834428 0.860853 11.717343 6.471814 -8.926313 -12.585844 20.286789 -0.841590 -2.673002 -19.597482 26.506197 -14.098620 -19.093988 0.316333 13.949321 
-0.936562 0.327707 0.978178 94.509355 2.355071 84.556079 -0.110872 2.202372 3.909988 -3.547823 -15.686827 12.890898 2.982491 19.330356 -22.371961 0.000000 -0.000000 0.000000 -2.529308 0.112814 -22.965889 2.078450 -0.410774 32.927052 9.653940 -16.741415 -12.559808 0.000000 -0.000000 0.000000 -1.648856 -3.082732 20.807767 0.761142 -2.015623 -6.930534 1.244725 -1.921917 7.487566 2.218218 0.900011 3.892843 0.990271 -2.267569 1.611571 -6.717472 7.358486 -8.948125 -18.266309 -4.444664 -9.501594 15.416453 -24.330778 -8.578585 2.890671 0.708629 11.820869 6.453267 -9.268725 -12.614040 20.503942 -0.876833 -2.617105 -19.592396 26.153668 -14.146976 -18.907845 -0.000009 13.941358 
-0.921293 0.322598 0.977224 95.989764 2.417572 84.752601 0.754094 2.803514 4.525340 -3.777728 -16.397687 12.941017 2.511923 18.404754 -22.768026 0.000000 -0.000000 0.000000 -2.575811 0.100937 -23.684675 1.634064 -0.024054 29.767222 9.953042 -16.904379 -10.209738 0.000000 -0.000000 0.000000 -2.030352 -3.602230 21.073156 0.496367 -2.486465 -6.973354 1.142354 -2.279973 7.565010 2.235707 0.587179 3.629128 1.722512 -1.791220 1.311787 -7.128648 7.302075 -8.862336 -18.404556 -4.709936 -9.730117 15.464763 -23.853097 -8.705814 3.093904 0.680502 11.904855 6.318419 -9.621471 -12.660238 20.776536 -1.226975 -2.617168 -19.743208 25.965022 -14.392247 -18.578263 -0.309984 13.533981 
-0.904834 0.316181 0.975727 97.451544 2.521546 84.966162 1.544567 3.331398 5.219010 -3.720204 -17.223390 12.889168 2.309219 18.029591 -23.151441 0.000000 -0.000000 0.000000 -2.570888 -0.007977 -24.226986 1.370107 0.617778 27.177238 10.175276 -16.943990 -8.254612 0.000000 -0.000000 0.000000 -2.342015 -3.973062 21.290156 0.127536 -2.857842 -6.977613 0.980821 -2.666743 7.643929 2.221501 -0.003397 3.466740 2.542973 -1.429651 0.937269 -7.482025 7.043232 -8.624036 -18.438811 -4.916078 -9.952031 15.446475 -23.627535 -8.724202 3.310170 0.688111 11.975580 6.102052 -9.918940 -12.695833 20.948621 -1.925551 -2.780548 -19.816529 25.907183 -14.697971 -18.408760 -0.589009 13.308680 
-0.887289 0.308261 0.973832 98.522898 2.767213 85.311851 2.496487 3.613201 5.883015 -3.573530 -17.957788 12.822936 2.122765 18.032311 -23.682232 0.000000 -0.000000 0.000000 -2.294981 0.133988 -24.757647 1.343848 1.482015 25.450831 10.356416 -16.662154 -7.046172 0.000000 -0.000000 0.000000 -2.562908 -4.218210 21.200282 -0.268262 -3.032024 -6.856182 0.772696 -2.944844 7.630882 2.265258 -0.542753 3.520045 3.250883 -1.198474 0.605924 -7.784576 6.703015 -8.396837 -18.565688 -5.083786 -10.077071 15.469608 -23.483937 -8.759971 3.598716 0.764804 12.033613 5.765121 -10.099494 -12.593372 21.031496 -2.602138 -3.137439 -19.829877 25.736985 -14.842079 -18.372450 -0.974562 13.090870 
-0.868309 0.299327 0.972040 99.232735 3.103335 85.748203 3.635101 3.819065 6.456168 -3.408608 -18.403554 12.977673 1.695060 17.865998 -24.391668 0.000000 -0.000000 0.000000 -1.661132 0.245898 -25.096624 1.403670 2.325289 24.677268 10.527635 -16.222727 -6.978636 0.000000 -0.000000 0.000000 -2.722165 -4.441829 20.882927 -0.637771 -3.127274 -6.704836 0.538782 -3.144533 7.482195 2.326628 -0.901493 3.672633 3.670711 -0.893201 0.631831 -8.202000 6.589225 -8.383843 -18.816769 -5.144418 -10.115403 15.489139 -23.552866 -8.792706 3.701714 0.668142 12.186134 5.396644 -10.190270 -12.506508 20.825147 -3.047992 -3.538305 -19.571161 25.521981 -14.814820 -18.235699 -1.057187 12.907211 
-0.847894 0.289599 0.970195 99.699431 3.372722 86.219367 4.786104 3.887655 7.015382 -3.288142 -18.532409 13.314166 1.268425 17.633142 -25.087342 0.000000 -0.000000 0.000000 -0.924212 0.188719 -24.912756 1.605646 2.427992 24.620188 10.481426 -15.950808 -6.486905 0.000000 -0.000000 0.000000 -2.980128 -4.594169 20.256607 -0.978738 -3.232013 -6.299967 0.323706 -3.222799 7.236139 2.316349 -1.221601 3.960254 4.093944 -0.578860 0.480692 -8.614373 6.535748 -8.356934 -19.231700 -5.086147 -10.134591 15.605243 -23.798707 -8.695317 3.586173 0.893813 12.449253 5.025764 -10.249727 -12.400694 20.472684 -3.326330 -4.052651 -19.273967 25.454591 -14.514282 -18.115813 -1.257642 12.702348 
-0.826587 0.279226 0.968183 99.834303 3.567236 86.729168 5.907280 3.976808 7.527209 -3.281207 -18.521616 13.892874 0.930283 17.502884 -25.643410 0.000000 -0.000000 0.000000 -0.071936 -0.024378 -24.480973 2.098889 2.310604 25.243498 9.375729 -15.776686 -6.974821 0.000000 -0.000000 0.000000 -3.279303 -4.619648 19.483205 -1.359417 -3.280244 -5.946156 0.069902 -3.283785 7.051724 2.373146 -1.325274 4.152745 4.480923 -0.311363 0.531307 -8.970154 6.482571 -8.325442 -19.602461 -4.941106 -10.120449 15.716108 -23.876741 -8.406143 3.514402 1.248152 12.429093 4.670431 -10.208442 -12.166072 20.156561 -3.485904 -4.569821 -19.104525 25.541052 -13.872676 -18.035217 -1.406919 12.309169 
-0.805765 0.268233 0.967024 99.371245 3.896185 87.170190 7.149757 4.149434 8.079509 -3.342555 -18.036663 14.605210 0.366005 17.485893 -25.718314 0.000000 -0.000000 0.000000 0.960705 0.369176 -24.520246 2.612751 1.983931 26.463033 8.314839 -15.887338 -7.751424 0.000000 -0.000000 0.000000 -3.691739 -4.675196 18.938215 -1.722146 -2.990314 -5.609221 -0.146408 -3.236970 6.792074 2.646507 -1.220815 4.072230 4.806189 -0.145920 0.800616 -9.399475 6.564901 -8.408870 -19.907266 -4.881818 -10.161432 16.051575 -23.941353 -8.862940 3.494410 1.659320 12.169075 4.484730 -10.112040 -11.950248 20.031330 -3.328734 -4.807984 -19.241295 25.748855 -13.498783 -17.958646 -1.630999 11.993218 
-0.785201 0.256650 0.967584 98.810565 4.381365 87.466515 8.433697 4.114009 8.593998 -3.410246 -17.601605 15.650163 -0.429879 17.608128 -25.273697 0.000000 -0.000000 0.000000 2.116619 1.490959 -24.287343 3.076469 1.434983 27.580700 7.482340 -16.020177 -8.974196 0.000000 -0.000000 0.000000 -4.350712 -4.964163 18.708032 -1.964672 -2.759482 -5.277060 -0.256483 -3.057689 6.365836 2.971034 -0.983156 4.284472 5.168859 0.086913 0.942776 -9.790817 6.660070 -8.480512 -20.165822 -4.623933 -10.098073 16.469124 -23.998409 -9.521425 3.726805 1.915384 11.938178 4.276629 -9.865988 -11.709586 20.279087 -2.977572 -4.830543 -19.310721 26.289507 -12.853018 -18.080993 -1.873882 11.323687 
